<svg width="222" height="67" viewBox="0 0 222 67" fill="none" xmlns="http://www.w3.org/2000/svg">
<path d="M33.9211 0.2323C15.4188 0.2323 0.706299 15.1847 0.706299 33.3984C0.706299 51.8116 15.4188 66.7677 33.9211 66.7677C52.521 66.7677 67.0362 51.8143 67.0362 33.4042C67.0393 15.1905 52.521 0.2323 33.9211 0.2323ZM33.9211 14.3103C49.0284 14.3103 60.0954 23.8064 64.7722 33.4042C60.0954 43.1485 49.0284 52.6896 33.9211 52.6896C18.7162 52.6896 7.73771 43.1454 3.06412 33.4042C7.73771 23.8095 18.7193 14.3161 33.9211 14.3161V14.3103ZM33.9211 15.8197C24.0795 15.8197 16.0556 23.704 16.0556 33.3984C16.0556 43.2393 24.0795 51.0815 33.9211 51.0815C43.7627 51.0815 51.681 43.2389 51.681 33.4042C51.681 23.7098 43.7627 15.8197 33.9211 15.8197Z" fill="black"/>
<path d="M98.7894 4.18054C81.4178 4.18054 69.3108 17.2329 69.3108 33.1087V33.3003C69.3108 49.3725 81.6644 62.0891 98.3495 62.0891C109.224 62.0891 115.722 58.2392 121.529 52.0516L113.605 44.1679C109.174 48.1579 105.183 50.7454 98.7366 50.7454C89.043 50.7454 82.3023 42.7003 82.3023 33.1087V32.9636C82.3023 23.3689 89.1911 15.5242 98.7366 15.5242C104.396 15.5242 108.825 17.9115 113.206 21.8579L121.13 12.7957C115.864 7.68354 109.469 4.18054 98.7894 4.18054Z" fill="black"/>
<path d="M126.216 5.15015V61.1081H153.132C165.874 61.1081 174.288 56.0005 174.288 45.7761V45.5788C174.288 38.0788 170.257 34.3245 163.707 31.8432C167.744 29.6051 171.138 26.0991 171.138 19.7681V19.6229C171.138 15.7701 169.857 12.6541 167.249 10.0731C164.006 6.90916 158.936 5.15015 152.487 5.15015H126.216ZM138.316 15.9133H150.621C155.887 15.9133 158.786 18.0073 158.786 21.6606V21.858C158.786 25.9976 155.294 27.7505 149.783 27.7505L138.316 27.7563V15.9133ZM138.316 37.9853H152.739C159.082 37.9853 161.936 40.3252 161.936 44.0752V44.2667C161.936 48.4064 158.593 50.3043 153.132 50.3043L138.316 50.3101V37.9853Z" fill="black"/>
<path d="M198.681 4.32507C187.168 4.32507 178.904 11.0442 178.904 21.2187V21.3696C178.904 32.4793 186.28 35.5982 197.649 38.4723C207.097 40.9037 209.063 42.4609 209.063 45.578V45.7754C209.063 49.036 205.96 51.0351 200.893 51.0351C194.396 51.0351 189.083 48.3998 184.012 44.2602L176.634 52.9799C183.424 58.9711 192.083 61.8969 200.646 61.8969V61.8912C212.85 61.8912 221.409 55.6535 221.409 44.5563V44.4112C221.409 34.6232 214.917 30.5722 203.45 27.6046C193.709 25.1171 191.244 23.9025 191.244 20.2492V20.1041C191.244 17.3765 193.755 15.1869 198.529 15.1869C203.303 15.1869 208.225 17.2772 213.245 20.7311L219.691 11.4367C213.981 6.90739 206.948 4.32507 198.681 4.32507Z" fill="black"/>
</svg>
