<svg width="112" height="24" viewBox="0 0 112 24" fill="none" xmlns="http://www.w3.org/2000/svg">
<path d="M5.825 21L7.45 13.975L2 9.25L9.2 8.625L12 2L14.8 8.625L22 9.25L16.55 13.975L18.175 21L12 17.275L5.825 21Z" fill="#FEA500"/>
<path d="M27.825 21L29.45 13.975L24 9.25L31.2 8.625L34 2L36.8 8.625L44 9.25L38.55 13.975L40.175 21L34 17.275L27.825 21Z" fill="#FEA500"/>
<path d="M49.825 21L51.45 13.975L46 9.25L53.2 8.625L56 2L58.8 8.625L66 9.25L60.55 13.975L62.175 21L56 17.275L49.825 21Z" fill="#FEA500"/>
<path d="M71.825 21L73.45 13.975L68 9.25L75.2 8.625L78 2L80.8 8.625L88 9.25L82.55 13.975L84.175 21L78 17.275L71.825 21Z" fill="#FEA500"/>
<path d="M93.825 21L95.45 13.975L90 9.25L97.2 8.625L100 2L102.8 8.625L110 9.25L104.55 13.975L106.175 21L100 17.275L93.825 21Z" fill="#FEA500"/>
</svg>
