<svg width="45" height="45" viewBox="0 0 45 45" fill="none" xmlns="http://www.w3.org/2000/svg">
<path d="M0 20C0 10.5719 0 5.85786 2.92893 2.92893C5.85786 0 10.5719 0 20 0H25C34.4281 0 39.1421 0 42.0711 2.92893C45 5.85786 45 10.5719 45 20V25C45 34.4281 45 39.1421 42.0711 42.0711C39.1421 45 34.4281 45 25 45H20C10.5719 45 5.85786 45 2.92893 42.0711C0 39.1421 0 34.4281 0 25V20Z" fill="url(#paint0_linear_144_61)"/>
<path fill-rule="evenodd" clip-rule="evenodd" d="M25.3558 13.0079C25.1328 12.976 24.9087 13.0419 24.7304 13.1838C24.5472 13.3277 24.4326 13.5356 24.4077 13.7684C24.355 14.2391 24.6946 14.6648 25.1646 14.7178C28.4063 15.0795 30.9259 17.6048 31.2904 20.8565C31.3392 21.2922 31.7047 21.621 32.1409 21.621C32.1738 21.621 32.2057 21.619 32.2385 21.615C32.4666 21.59 32.6697 21.4771 32.8132 21.2972C32.9556 21.1174 33.0203 20.8935 32.9944 20.6647C32.5403 16.6075 29.4002 13.4586 25.3558 13.0079ZM25.4181 16.4899C24.942 16.402 24.5048 16.7058 24.4142 17.1705C24.3236 17.6352 24.6283 18.0888 25.0914 18.1798C26.4857 18.4516 27.5623 19.5309 27.8351 20.9299V20.9309C27.9128 21.3336 28.2674 21.6264 28.6757 21.6264C28.7305 21.6264 28.7852 21.6214 28.841 21.6114C29.3041 21.5185 29.6088 21.0658 29.5182 20.6001C29.1109 18.5106 27.5025 16.8967 25.4181 16.4899ZM27.0001 26.0905C27.4515 25.8302 27.9615 25.5362 28.6047 25.673C29.1873 25.7959 31.1731 27.4078 31.7169 27.9665C32.0734 28.3322 32.2716 28.7099 32.3025 29.0877C32.3562 30.5697 30.3425 32.2615 29.976 32.4724C29.489 32.8231 28.9224 33 28.286 33C27.6357 33 26.9106 32.8151 26.1199 32.4464C21.8296 30.6556 15.2755 24.231 13.5427 19.9739C12.8236 18.389 12.8186 17.0819 13.5307 16.0996C13.8145 15.6389 15.4329 13.7132 16.8819 13.7742C17.2673 13.8072 17.6418 14.005 18.0093 14.3648C18.565 14.9094 20.1365 16.9011 20.258 17.4857C20.3925 18.1352 20.0977 18.6519 19.8358 19.1055C19.7799 19.2031 19.7046 19.3188 19.6222 19.4456C19.3092 19.9268 18.8926 20.5674 19.04 20.9763C20.0967 23.5705 22.5376 25.8339 25.133 26.8972C25.5343 27.0431 26.1745 26.6235 26.6542 26.3092C26.7791 26.2273 26.8932 26.1525 26.9893 26.0967L27.0001 26.0905Z" fill="#C3110F"/>
<defs>
<linearGradient id="paint0_linear_144_61" x1="22.5" y1="0" x2="22.5" y2="45" gradientUnits="userSpaceOnUse">
<stop stop-color="#FFEEED"/>
<stop offset="1" stop-color="#E6F6FE" stop-opacity="0"/>
</linearGradient>
</defs>
</svg>
